<svg width="320" height="160" viewBox="0 0 320 160" xmlns="http://www.w3.org/2000/svg" role="img" aria-labelledby="title desc">
  <title id="title">Mass Font Downloader Logo</title>
  <desc id="desc">Logotipo con las letras MFD acompañadas de una nube de descarga y líneas que representan familias tipográficas.</desc>
  <defs>
    <linearGradient id="gradient" x1="0%" y1="0%" x2="100%" y2="100%">
      <stop offset="0%" stop-color="#5E60CE" />
      <stop offset="50%" stop-color="#6930C3" />
      <stop offset="100%" stop-color="#7400B8" />
    </linearGradient>
    <clipPath id="rounded-rect">
      <rect x="10" y="10" width="300" height="140" rx="24" ry="24" />
    </clipPath>
    <filter id="shadow" x="-20%" y="-20%" width="140%" height="140%">
      <feDropShadow dx="0" dy="6" stdDeviation="12" flood-color="rgba(52, 52, 107, 0.35)" />
    </filter>
  </defs>
  <g clip-path="url(#rounded-rect)" filter="url(#shadow)">
    <rect x="10" y="10" width="300" height="140" fill="#1F1D2B" />
    <g transform="translate(18, 18)">
      <rect x="0" y="0" width="284" height="60" rx="16" fill="#2A2737" />
      <rect x="0" y="78" width="132" height="40" rx="12" fill="#2A2737" />
      <rect x="152" y="78" width="132" height="40" rx="12" fill="#2A2737" />
      <path d="M20 18 h96" stroke="#57537D" stroke-width="4" stroke-linecap="round" />
      <path d="M20 32 h72" stroke="#57537D" stroke-width="4" stroke-linecap="round" />
      <path d="M20 46 h112" stroke="#57537D" stroke-width="4" stroke-linecap="round" />
      <g transform="translate(168,6)">
        <path d="M30 12c0-11 9-20 20-20s20 9 20 20c10 0 18 8 18 18s-8 18-18 18H20c-11 0-20-9-20-20s9-20 20-20h10z" fill="#37345A" />
        <path d="M52 14v18" stroke="#FFFFFF" stroke-width="4" stroke-linecap="round" />
        <path d="M46 26l6 6 6-6" stroke="#FFFFFF" stroke-width="4" stroke-linecap="round" stroke-linejoin="round" />
      </g>
      <text x="10" y="110" font-family="'Inter', 'Segoe UI', sans-serif" font-weight="600" font-size="26" fill="#E0E0FF" letter-spacing="1">Mass Font</text>
      <text x="10" y="138" font-family="'Inter', 'Segoe UI', sans-serif" font-weight="700" font-size="28" fill="url(#gradient)" letter-spacing="1.5">Downloader</text>
      <text x="156" y="110" font-family="'JetBrains Mono', 'Fira Code', monospace" font-weight="600" font-size="22" fill="#B5B3E3">CLI Ready</text>
      <text x="156" y="136" font-family="'JetBrains Mono', 'Fira Code', monospace" font-weight="400" font-size="16" fill="#7C79AD">Google Fonts Toolkit</text>
      <g transform="translate(24,10)">
        <path d="M0 50c18-28 26-40 44-40s26 12 44 40" fill="none" stroke="url(#gradient)" stroke-width="6" stroke-linecap="round" />
        <path d="M14 54c12-20 18-28 30-28s18 8 30 28" fill="none" stroke="#8D89D1" stroke-width="4" stroke-linecap="round" opacity="0.7" />
      </g>
    </g>
  </g>
</svg>
